static_grf.mot
version=1
nRows=25
nColumns 19
inDegrees=yes
endheader
time	1_ground_force_vx	1_ground_force_vy	1_ground_force_vz	1_ground_force_px	1_ground_force_py	1_ground_force_pz	1_ground_torque_x	1_ground_torque_y	1_ground_torque_z	2_ground_force_vx	2_ground_force_vy	2_ground_force_vz	2_ground_force_px	2_ground_force_py	2_ground_force_pz	2_ground_torque_x	2_ground_torque_y	2_ground_torque_z
            1.467500	           -0.521491	          309.786786	          -19.764746	           -0.272539	            0.006136	           -0.386793	           -0.003572	            2.121896	           -0.135379	           -1.009600	          308.189134	           22.264452	           -0.267642	            0.005542	           -0.704464	            0.006548	           -1.998889	           -0.144405
            1.468000	           -0.521703	          310.327810	          -19.808283	           -0.272588	            0.006135	           -0.386509	           -0.003588	            2.134113	           -0.136221	           -1.053936	          307.453574	           21.933347	           -0.267435	            0.005541	           -0.704093	            0.006712	           -1.958030	           -0.139683
            1.468500	           -0.567561	          309.787171	          -19.856344	           -0.272600	            0.006136	           -0.386685	           -0.003919	            2.139283	           -0.137121	           -1.333644	          307.083775	           22.072936	           -0.267963	            0.005537	           -0.703626	            0.008538	           -1.965875	           -0.141306
            1.469000	           -0.475519	          310.327229	          -19.670829	           -0.272770	            0.006136	           -0.386609	           -0.003249	            2.120032	           -0.134383	           -1.334247	          307.267414	           22.214378	           -0.267765	            0.005539	           -0.703765	            0.008335	           -1.919505	           -0.138774
            1.469500	           -0.475698	          310.687957	          -19.715139	           -0.272655	            0.006135	           -0.386524	           -0.003302	            2.156441	           -0.136840	           -1.242603	          307.820676	           22.075525	           -0.267338	            0.005541	           -0.704122	            0.007742	           -1.917775	           -0.137534
            1.470000	           -0.704620	          310.326989	          -19.624404	           -0.272387	            0.006136	           -0.386669	           -0.004723	            2.079975	           -0.131533	           -1.335597	          307.635863	           22.168764	           -0.267788	            0.005540	           -0.704103	            0.008288	           -1.908945	           -0.137562
            1.470500	           -0.934257	          310.147434	          -19.808032	           -0.272737	            0.006135	           -0.386594	           -0.006302	            2.092149	           -0.133618	           -1.148136	          307.636037	           22.309468	           -0.267722	            0.005539	           -0.703863	            0.007158	           -1.917905	           -0.139085
            1.471000	           -0.337942	          310.687591	          -19.623769	           -0.272589	            0.006135	           -0.386508	           -0.002289	            2.104829	           -0.132946	           -1.290720	          308.188286	           22.217643	           -0.267595	            0.005541	           -0.704276	            0.008129	           -1.940984	           -0.139928
            1.471500	           -0.842475	          310.868122	          -19.713456	           -0.272468	            0.006134	           -0.386274	           -0.005503	            2.030458	           -0.128760	           -1.382406	          307.635359	           22.262640	           -0.267595	            0.005540	           -0.704102	            0.008717	           -1.939934	           -0.140387
            1.472000	           -0.292180	          310.507500	          -19.670511	           -0.272422	            0.006136	           -0.386590	           -0.001985	            2.109131	           -0.133612	           -1.292008	          308.556294	           22.312813	           -0.267360	            0.005544	           -0.704734	            0.008279	           -1.977205	           -0.142979
            1.472500	           -0.567693	          310.508233	          -19.853252	           -0.272272	            0.006134	           -0.386138	           -0.003865	            2.114117	           -0.135172	           -1.338337	          308.373095	           21.983679	           -0.267655	            0.005541	           -0.704291	            0.008121	           -1.871200	           -0.133396
            1.473000	           -0.429969	          310.688163	          -19.761109	           -0.272543	            0.006135	           -0.386408	           -0.002877	            2.078750	           -0.132217	           -1.291467	          308.373097	           22.030588	           -0.267587	            0.005541	           -0.704109	            0.007942	           -1.896373	           -0.135479
            1.473500	           -0.797138	          311.770079	          -19.847273	           -0.272581	            0.006133	           -0.386093	           -0.005274	            2.062879	           -0.131323	           -1.431976	          308.372254	           22.124504	           -0.267088	            0.005544	           -0.704655	            0.008996	           -1.937306	           -0.138994
            1.474000	           -0.430245	          310.328221	          -19.900222	           -0.272626	            0.006134	           -0.386277	           -0.003007	            2.169158	           -0.139100	           -1.333624	          307.083608	           22.119864	           -0.267786	            0.005538	           -0.703626	            0.008365	           -1.926044	           -0.138737
            1.474500	           -0.567564	          311.048668	          -19.759222	           -0.272276	            0.006134	           -0.386259	           -0.003784	            2.073598	           -0.131724	           -1.058424	          308.741281	           22.313371	           -0.267221	            0.005543	           -0.704451	            0.006710	           -1.957230	           -0.141453
            1.475000	           -0.796632	          310.868131	          -19.713570	           -0.272563	            0.006134	           -0.386334	           -0.005437	            2.121650	           -0.134544	           -1.196397	          308.004819	           22.123090	           -0.267731	            0.005539	           -0.703895	            0.007695	           -1.980971	           -0.142287
            1.475500	           -0.521817	          310.328007	          -19.854139	           -0.272772	            0.006136	           -0.386636	           -0.003567	            2.121259	           -0.135714	           -1.382488	          307.636028	           22.074927	           -0.267430	            0.005541	           -0.704042	            0.008418	           -1.873124	           -0.134409
            1.476000	           -0.522111	          310.688932	          -19.944305	           -0.272427	            0.006135	           -0.386496	           -0.003528	            2.099100	           -0.134749	           -1.334309	          307.267916	           22.073593	           -0.267531	            0.005539	           -0.703765	            0.008169	           -1.881252	           -0.135146
            1.476500	           -0.475357	          310.687368	          -19.577571	           -0.272733	            0.006135	           -0.386504	           -0.003195	            2.087957	           -0.131570	           -1.430044	          307.820334	           21.981748	           -0.267827	            0.005540	           -0.704240	            0.008961	           -1.928817	           -0.137739
            1.477000	           -0.842488	          309.066055	          -19.858753	           -0.273159	            0.006136	           -0.386754	           -0.005765	            2.114849	           -0.135888	           -1.243932	          308.188958	           22.076839	           -0.267421	            0.005542	           -0.704277	            0.007710	           -1.910079	           -0.136827
            1.477500	           -0.613308	          310.507831	          -19.761427	           -0.272286	            0.006134	           -0.386308	           -0.004121	            2.086256	           -0.132774	           -1.150212	          308.189129	           22.123727	           -0.267539	            0.005541	           -0.704096	            0.007189	           -1.926316	           -0.138283
            1.478000	           -0.521931	          310.328204	          -19.899995	           -0.272600	            0.006136	           -0.386703	           -0.003487	            2.073153	           -0.132942	           -1.195732	          307.820678	           22.122433	           -0.267523	            0.005542	           -0.704367	            0.007421	           -1.910485	           -0.137303
            1.478500	           -0.475602	          311.408627	          -19.620335	           -0.272276	            0.006133	           -0.385906	           -0.003206	            2.098920	           -0.132243	           -1.104047	          308.373606	           22.077436	           -0.267698	            0.005539	           -0.703869	            0.006958	           -1.943530	           -0.139143
            1.479000	           -0.751098	          310.688494	          -19.852024	           -0.272401	            0.006135	           -0.386368	           -0.005059	            2.092632	           -0.133713	           -1.335576	          307.635695	           22.215692	           -0.267362	            0.005541	           -0.703982	            0.008215	           -1.892138	           -0.136639
            1.479500	           -0.338298	          310.147550	          -19.809511	           -0.272892	            0.006135	           -0.386520	           -0.002311	            2.118437	           -0.135307	           -1.195753	          307.820845	           22.075505	           -0.267326	            0.005541	           -0.703879	            0.007656	           -1.970826	           -0.141339
